<?xml version="1.0" encoding="UTF-8" standalone="no"?>
<!-- Created with Inkscape (http://www.inkscape.org/) -->

<svg
   width="86.343307pt"
   height="34.441002pt"
   viewBox="0 0 30.46 12.150021"
   version="1.1"
   id="svg5"
   inkscape:version="1.2.2 (b0a8486541, 2022-12-01)"
   sodipodi:docname="cadnr.svg"
   xmlns:inkscape="http://www.inkscape.org/namespaces/inkscape"
   xmlns:sodipodi="http://sodipodi.sourceforge.net/DTD/sodipodi-0.dtd"
   xmlns="http://www.w3.org/2000/svg"
   xmlns:svg="http://www.w3.org/2000/svg">
  <sodipodi:namedview
     id="namedview7"
     pagecolor="#505050"
     bordercolor="#eeeeee"
     borderopacity="1"
     inkscape:showpageshadow="0"
     inkscape:pageopacity="0"
     inkscape:pagecheckerboard="0"
     inkscape:deskcolor="#505050"
     inkscape:document-units="mm"
     showgrid="false"
     inkscape:zoom="3.7442931"
     inkscape:cx="84.12803"
     inkscape:cy="3.4719504"
     inkscape:window-width="1920"
     inkscape:window-height="1005"
     inkscape:window-x="0"
     inkscape:window-y="0"
     inkscape:window-maximized="1"
     inkscape:current-layer="layer1" />
  <defs
     id="defs2" />
  <g
     inkscape:label="Layer 1"
     inkscape:groupmode="layer"
     id="layer1"
     transform="translate(-35.484313,-15.71101)">
    <path
       d="m 38.161887,25.320654 q -1.248829,0 -1.968493,-0.677331 -0.709081,-0.687915 -0.709081,-2.222493 0,-1.09008 0.349248,-1.746245 0.359833,-0.656164 0.984247,-0.941913 0.634998,-0.296333 1.439329,-0.296333 0.497415,0 0.89958,0.105833 0.412749,0.09525 0.772581,0.285749 l -0.285749,0.772581 q -0.338665,-0.179916 -0.656164,-0.253999 -0.317499,-0.08467 -0.687915,-0.08467 -0.973663,0 -1.407579,0.539748 -0.433915,0.529165 -0.433915,1.598078 0,1.132413 0.455082,1.619245 0.455082,0.486832 1.354662,0.486832 0.465666,0 0.878414,-0.09525 0.412749,-0.105833 0.719665,-0.243416 v 0.836081 q -0.317499,0.148166 -0.783165,0.232832 -0.465665,0.08467 -0.920747,0.08467 z"
       style="font-size:10.5833px;line-height:1.25;font-family:monospace;-inkscape-font-specification:monospace;letter-spacing:0px;stroke-width:0.264583"
       id="path406" />
    <path
       d="m 42.86087,27.733646 c 0,-0.03175 -0.02117,-0.0635 -0.04233,-0.08467 -1.100663,-0.825498 -1.830911,-2.942158 -1.830911,-4.635485 v -0.888998 c 0,-1.693328 0.730248,-3.809988 1.830911,-4.635485 0.02117,-0.02117 0.04233,-0.05292 0.04233,-0.08467 0,-0.05292 -0.05292,-0.105833 -0.105833,-0.105833 -0.02117,0 -0.04233,0.01058 -0.0635,0.02117 -1.164163,0.878414 -2.275409,2.995074 -2.275409,4.804818 v 0.888998 c 0,1.809744 1.111246,3.926404 2.275409,4.804818 0.02117,0.01058 0.04233,0.02117 0.0635,0.02117 0.05292,0 0.105833,-0.05292 0.105833,-0.105833 z"
       style="font-size:10.5833px;line-height:1.25;font-family:'Latin Modern Math';-inkscape-font-specification:'Latin Modern Math';letter-spacing:0px;stroke-width:0.264583"
       id="path408" />
    <path
       d="m 43.950941,25.320654 q -0.83608,0 -1.354662,-0.412749 -0.507998,-0.412749 -0.507998,-1.248829 0,-0.920747 0.656164,-1.375829 0.666748,-0.455082 1.915577,-0.486832 l 1.21708,-0.03175 v -0.232832 q 0,-0.761998 -0.380999,-1.037164 -0.380999,-0.285749 -1.02658,-0.285749 -0.455082,0 -0.867831,0.116416 -0.412748,0.116417 -0.783164,0.328083 l -0.328082,-0.719665 q 0.402165,-0.201082 0.888997,-0.349249 0.497415,-0.148166 1.142996,-0.148166 1.068914,0 1.640412,0.486832 0.582081,0.476249 0.582081,1.492245 v 3.799405 h -0.761997 l -0.105833,-0.783164 h -0.04233 q -0.349249,0.444498 -0.804331,0.666748 -0.455082,0.222249 -1.079497,0.222249 z m 0.15875,-0.772581 q 0.476248,0 0.878414,-0.169333 0.402165,-0.179916 0.645581,-0.529165 0.243416,-0.359832 0.243416,-0.89958 v -0.507999 l -1.015997,0.03175 q -1.015997,0.03175 -1.449912,0.328083 -0.423332,0.296332 -0.423332,0.825497 0,0.486832 0.306916,0.709081 0.306915,0.211666 0.814914,0.211666 z"
       style="font-size:10.5833px;line-height:1.25;font-family:monospace;-inkscape-font-specification:monospace;letter-spacing:0px;stroke-width:0.264583"
       id="path410" />
    <path
       d="M 48.321843,27.64898 V 17.489012 c 0,-0.116416 -0.09525,-0.211666 -0.211666,-0.211666 -0.116416,0 -0.211666,0.09525 -0.211666,0.211666 V 27.64898 c 0,0.116416 0.09525,0.211666 0.211666,0.211666 0.116417,0 0.211666,-0.09525 0.211666,-0.211666 z"
       style="font-size:10.5833px;line-height:1.25;font-family:'Latin Modern Math';-inkscape-font-specification:'Latin Modern Math';letter-spacing:0px;stroke-width:0.264583"
       id="path412" />
    <path
       d="m 51.422745,25.320654 q -1.047747,0 -1.682745,-0.730248 -0.634998,-0.740831 -0.634998,-2.243659 0,-1.418162 0.603248,-2.158993 0.603248,-0.751415 1.820328,-0.751415 0.592665,0 0.973663,0.232833 0.380999,0.232832 0.582082,0.592665 h 0.0635 q -0.02117,-0.148167 -0.04233,-0.391582 -0.02117,-0.243416 -0.02117,-0.444499 v -2.254243 h 0.941913 v 8.043308 h -0.783164 l -0.105833,-0.761998 h -0.04233 q -0.232833,0.380999 -0.634998,0.624415 -0.391582,0.243416 -1.037163,0.243416 z m 0.179916,-0.772581 q 0.751414,0 1.111246,-0.518582 0.370416,-0.529165 0.370416,-1.428745 V 22.38908 q 0,-0.624415 -0.137583,-1.111247 -0.137583,-0.497415 -0.455082,-0.783164 -0.317499,-0.285749 -0.857247,-0.285749 -0.740831,0 -1.15358,0.550332 -0.402165,0.550331 -0.402165,1.682744 0,2.106077 1.523995,2.106077 z"
       style="font-size:10.5833px;line-height:1.25;font-family:monospace;-inkscape-font-specification:monospace;letter-spacing:0px;stroke-width:0.264583"
       id="path414" />
    <path
       d="m 56.862562,23.013495 v -0.888998 c 0,-1.809744 -1.111246,-3.926404 -2.275409,-4.804818 -0.02117,-0.01058 -0.04233,-0.02117 -0.0635,-0.02117 -0.05292,0 -0.105833,0.05292 -0.105833,0.105833 0,0.03175 0.02117,0.0635 0.04233,0.08467 1.100663,0.825497 1.830911,2.942157 1.830911,4.635485 v 0.888998 c 0,1.693327 -0.730248,3.809987 -1.830911,4.635485 -0.02117,0.02117 -0.04233,0.05292 -0.04233,0.08467 0,0.05292 0.05292,0.105833 0.105833,0.105833 0.02117,0 0.04233,-0.01058 0.0635,-0.02117 1.164163,-0.878414 2.275409,-2.995074 2.275409,-4.804818 z"
       style="font-size:10.5833px;line-height:1.25;font-family:'Latin Modern Math';-inkscape-font-specification:'Latin Modern Math';letter-spacing:0px;stroke-width:0.264583"
       id="path416" />
    <path
       d="m 56.460388,16.187258 c 0.04233,-0.02117 0.116417,-0.04233 0.1905,-0.04233 0.201083,0 0.232832,0.09525 0.232832,0.444499 v 1.735661 c 0,0.402165 -0.05292,0.486832 -0.412748,0.518581 v 0.127 h 1.492245 v -0.127 c -0.359832,-0.03175 -0.444499,-0.105836 -0.444499,-0.359835 v -1.95791 c 0.338666,-0.317499 0.476249,-0.402166 0.709081,-0.402166 0.349249,0 0.497416,0.211666 0.497416,0.677332 v 1.460495 c 0,0.444499 -0.07408,0.550332 -0.423332,0.582081 v 0.127 h 1.460495 v -0.127 c -0.349249,-0.03175 -0.402165,-0.105833 -0.402165,-0.455081 v -1.608662 c 0,-0.666748 -0.338666,-1.068913 -0.857248,-1.068913 -0.328082,0 -0.529165,0.126999 -1.005413,0.582081 V 15.74276 l -0.0635,-0.02117 c -0.349249,0.127 -0.582081,0.201083 -0.973664,0.317499 z"
       style="font-size:10.5833px;line-height:1.25;font-family:'Latin Modern Math';-inkscape-font-specification:'Latin Modern Math';letter-spacing:0px;stroke-width:0.264583"
       id="path418" />
    <path
       d="m 60.545534,25.214821 v -0.634998 l 1.725077,-0.15875 V 20.33592 l -1.555745,-0.137583 v -0.656165 h 2.317743 l 0.127,1.037164 h 0.04233 q 0.296332,-0.560915 0.645581,-0.846664 0.359832,-0.296333 0.941914,-0.296333 0.359832,0 0.634998,0.0635 0.285749,0.0635 0.518581,0.169333 l -0.253999,0.836081 q -0.169333,-0.09525 -0.402165,-0.15875 -0.232833,-0.07408 -0.497415,-0.07408 -0.455082,0 -0.804331,0.285749 -0.349249,0.285749 -0.550332,0.761998 -0.201082,0.476248 -0.201082,1.047746 v 2.05316 l 1.650994,0.15875 v 0.634998 z"
       style="font-size:10.5833px;line-height:1.25;font-family:monospace;-inkscape-font-specification:monospace;letter-spacing:0px;stroke-width:0.264583"
       id="path420" />
  </g>
</svg>
